<?xml version="1.0" standalone="no"?>
<!DOCTYPE svg PUBLIC "-//W3C//DTD SVG 20010904//EN"
 "http://www.w3.org/TR/2001/REC-SVG-20010904/DTD/svg10.dtd">
<svg version="1.0" xmlns="http://www.w3.org/2000/svg"
 width="512.000000pt" height="512.000000pt" viewBox="0 0 512.000000 512.000000"
 preserveAspectRatio="xMidYMid meet">
<metadata>
Created by potrace 1.11, written by Peter Selinger 2001-2013
</metadata>
<g transform="translate(0.000000,512.000000) scale(0.100000,-0.100000)"
fill="#000000" stroke="none">
<path d="M2236 5104 c-584 -80 -1088 -326 -1491 -729 -396 -394 -640 -881
-725 -1444 -20 -128 -21 -171 -17 -415 5 -301 17 -392 83 -631 186 -676 656
-1256 1277 -1580 906 -473 2002 -365 2796 276 125 100 337 319 429 441 149
198 284 445 367 672 198 537 203 1156 13 1705 -293 850 -1019 1490 -1893 1669
-254 52 -609 68 -839 36z m-202 -423 c28 -15 52 -33 54 -39 4 -14 -98 -113
-113 -108 -5 1 -9 13 -7 25 4 27 11 29 -265 -61 -230 -74 -377 -141 -417 -189
-31 -37 -32 -41 -6 -64 17 -15 27 -16 68 -8 57 11 72 8 72 -18 0 -36 -86 -70
-144 -55 -13 3 -38 25 -55 48 -85 115 1 202 310 317 94 35 276 90 397 121 41
11 52 23 32 35 -16 10 -11 25 8 24 9 0 39 -13 66 -28z m234 -47 c26 -30 32
-46 32 -81 0 -83 -48 -116 -187 -128 -126 -11 -341 -71 -488 -136 -46 -20 -48
-22 -26 -31 18 -6 47 1 122 32 317 130 706 164 1064 94 213 -42 478 -155 672
-286 100 -68 118 -77 175 -83 154 -18 360 -105 485 -205 226 -181 373 -485
373 -769 l0 -58 88 -43 c72 -36 103 -60 182 -139 109 -109 165 -207 200 -345
25 -100 25 -162 0 -262 -56 -220 -200 -400 -395 -494 -123 -59 -187 -72 -380
-77 l-171 -5 -22 -39 c-44 -76 -177 -243 -261 -328 -370 -373 -860 -566 -1386
-547 -93 3 -183 8 -200 11 -20 3 -18 1 8 -6 21 -6 53 -26 72 -44 32 -30 35
-37 35 -93 0 -76 -24 -108 -89 -123 -110 -25 -437 51 -747 172 -40 16 -60 45
-43 65 18 22 64 17 168 -20 234 -84 471 -146 557 -146 21 0 43 9 61 24 l28 25
-25 25 c-14 14 -37 28 -52 31 -23 6 -26 4 -21 -14 8 -31 -7 -26 -54 20 -50 47
-53 63 -15 83 30 16 29 17 -58 37 -247 54 -602 236 -767 392 -18 17 -36 27
-40 23 -4 -4 -6 -36 -5 -71 2 -52 0 -65 -12 -65 -24 0 -148 30 -168 41 -31 17
-21 32 18 26 19 -3 34 -3 32 2 -2 4 -52 65 -111 137 -59 71 -138 172 -176 224
-72 101 -91 113 -135 85 -33 -22 -76 -13 -76 15 0 10 16 31 35 46 28 21 47 27
86 27 65 0 86 -13 129 -76 48 -72 233 -302 289 -360 45 -47 45 -47 58 -25 11
21 7 28 -51 88 -137 141 -254 305 -329 461 -26 54 -47 86 -55 84 -7 -3 -24 1
-37 7 -35 16 -51 -2 -54 -60 -1 -7 -13 -24 -27 -37 -23 -21 -37 -25 -94 -25
-80 0 -108 17 -144 89 -60 117 -144 434 -131 493 4 15 13 32 22 39 21 18 39
-8 53 -80 33 -177 109 -396 155 -445 31 -33 81 -36 90 -5 10 31 -8 43 -30 19
-16 -18 -45 -28 -45 -15 0 11 93 145 101 145 4 0 38 -23 75 -51 41 -31 64 -43
60 -32 -41 106 -81 239 -104 342 -25 117 -26 143 -26 371 0 228 1 254 26 371
114 530 441 983 896 1241 l94 53 -59 6 c-95 9 -99 16 -50 88 17 26 37 57 43
67 10 16 14 17 25 6 11 -10 11 -16 1 -32 -17 -27 -9 -26 105 19 143 57 261 89
411 111 72 10 141 24 152 30 28 15 25 45 -5 67 -69 48 -69 48 -55 72 10 20 17
23 53 18 32 -4 50 -14 75 -43z m-1308 -390 c7 -19 15 -24 27 -20 72 28 152 29
195 3 41 -25 72 -120 50 -153 -4 -6 -48 -45 -99 -87 -51 -42 -125 -116 -165
-164 -112 -133 -133 -153 -162 -153 -32 0 -34 25 -7 78 30 57 169 210 270 296
50 43 91 82 91 87 0 27 -90 53 -105 29 -3 -5 3 -10 14 -10 12 0 21 -4 21 -9 0
-11 -74 -24 -140 -25 -49 -1 -47 -8 -33 79 6 40 19 75 29 75 2 0 9 -12 14 -26z
m-70 -171 c0 -25 -24 -58 -112 -158 -85 -96 -155 -194 -164 -232 -7 -27 11
-69 32 -77 8 -3 22 -2 32 1 15 6 14 8 -6 13 -13 3 -24 10 -25 15 -2 12 125 27
136 16 13 -13 4 -124 -10 -129 -7 -2 -13 4 -13 13 0 13 -5 15 -17 10 -10 -5
-46 -10 -80 -13 -60 -4 -64 -3 -93 28 -27 29 -30 38 -30 102 0 44 6 81 16 101
42 82 226 300 269 318 36 14 65 10 65 -8z m-420 -662 c0 -90 -12 -123 -29 -79
-8 21 -11 19 -34 -33 -56 -123 -127 -401 -134 -520 -5 -84 -5 -86 22 -107 16
-13 42 -22 61 -22 40 0 48 -10 29 -37 -19 -27 -92 -39 -129 -21 -43 19 -56 56
-56 156 0 139 55 383 129 575 l30 78 -27 -3 c-53 -6 -36 18 43 59 44 23 83 42
88 43 4 0 7 -40 7 -89z m158 46 c35 -33 30 -88 -22 -198 -50 -109 -88 -219
-115 -339 -35 -156 -36 -197 -1 -155 15 18 30 20 30 3 -1 -19 -68 -108 -87
-115 -12 -5 -30 8 -60 41 -46 51 -60 96 -24 76 33 -17 39 -12 46 43 20 162 72
346 141 496 l38 83 -27 20 c-31 22 -35 52 -9 67 22 13 61 3 90 -22z m-172
-980 c15 -17 24 -41 24 -60 0 -49 39 -269 65 -366 23 -83 23 -87 5 -105 -11
-12 -25 -16 -38 -12 -17 6 -25 28 -47 117 -14 60 -34 167 -44 236 -19 133 -30
154 -75 152 -18 -1 -18 -2 -3 -6 20 -5 18 -22 -4 -35 -49 -27 -123 -57 -130
-52 -5 3 -9 11 -9 17 0 7 -11 38 -24 69 -13 32 -21 60 -18 62 2 3 17 -3 32
-14 16 -11 31 -15 36 -10 30 29 72 41 138 38 60 -3 71 -7 92 -31z m144 -991
c68 -34 90 -49 90 -63 0 -16 -12 -16 -45 -1 -40 18 -40 4 4 -61 89 -131 256
-309 339 -362 l45 -29 32 20 c34 21 75 17 75 -8 0 -8 -11 -30 -26 -49 -23 -30
-30 -33 -78 -33 -58 0 -104 24 -190 101 -67 59 -216 234 -273 320 l-47 71 -23
-28 c-12 -16 -25 -25 -29 -21 -6 6 22 150 33 170 6 10 35 1 93 -27z m846 -569
c125 -57 301 -119 456 -162 63 -17 89 -45 67 -71 -18 -21 -56 -17 -186 20
-186 55 -321 104 -412 152 -91 47 -121 53 -145 28 -21 -21 -20 -36 5 -68 25
-31 59 -35 59 -6 0 25 18 26 27 3 3 -10 15 -38 25 -61 11 -24 17 -50 14 -57
-8 -22 -156 -56 -156 -36 0 6 5 11 10 11 29 0 18 32 -24 73 -46 43 -46 44 -46
111 0 61 3 70 29 97 25 25 37 29 84 29 46 0 77 -10 193 -63z"/>
<path d="M2268 4360 c-149 -12 -286 -40 -291 -60 -2 -10 -30 -30 -62 -45 -32
-15 -74 -43 -94 -63 -20 -21 -51 -45 -68 -54 -18 -9 -33 -21 -33 -26 0 -18
121 16 171 47 28 17 53 31 57 31 4 0 24 11 44 25 44 30 88 32 113 5 36 -39 52
-36 110 26 l54 58 79 7 c89 8 162 36 127 50 -24 9 -75 9 -207 -1z"/>
<path d="M2487 4319 c-43 -22 -77 -32 -130 -36 l-72 -6 -57 -58 c-32 -33 -63
-59 -68 -59 -18 0 -70 30 -70 40 0 5 -9 12 -20 15 -14 4 -34 -3 -62 -24 -23
-17 -48 -31 -54 -31 -7 0 -33 -13 -57 -30 -27 -18 -73 -36 -116 -45 -95 -20
-93 -20 -89 17 2 27 12 39 53 65 28 18 59 44 70 57 11 14 42 34 69 46 79 34
45 34 -56 0 -105 -35 -251 -102 -339 -156 -47 -28 -58 -40 -54 -54 7 -22 -28
-95 -91 -191 -46 -70 -48 -72 -174 -109 -53 -16 -83 -31 -101 -52 -25 -28 -26
-31 -12 -59 13 -26 13 -34 0 -67 -8 -20 -12 -52 -10 -70 6 -39 -7 -58 -47 -66
-20 -4 -30 -11 -30 -24 0 -10 -14 -31 -31 -48 -17 -16 -55 -65 -84 -109 -63
-94 -91 -124 -139 -154 -38 -24 -53 -58 -77 -183 -12 -58 -11 -62 9 -78 51
-42 78 -68 88 -86 6 -10 22 -24 35 -31 13 -7 29 -19 35 -28 7 -9 18 -14 25
-13 16 4 32 -74 25 -121 -5 -31 1 -42 48 -95 29 -34 60 -75 70 -93 9 -18 28
-40 42 -50 14 -10 51 -39 82 -64 l57 -47 0 97 c0 189 80 360 239 514 69 65
163 120 266 154 47 15 89 34 94 42 5 8 24 30 43 48 18 19 33 39 33 45 0 14 68
78 84 78 6 0 30 10 54 22 33 18 42 28 42 50 0 20 10 33 42 55 40 26 88 84 88
105 0 5 -11 19 -25 32 -29 27 -33 71 -10 102 8 10 15 29 15 41 0 32 27 55 50
43 21 -11 70 -13 94 -4 24 9 19 50 -10 79 -33 33 -27 50 22 51 21 0 53 8 69
17 34 19 27 20 -30 7 -39 -9 -105 -4 -105 9 0 3 18 19 40 35 22 17 40 35 40
42 0 6 -12 23 -26 37 -35 35 -30 71 11 75 33 3 75 -27 75 -55 0 -9 8 -25 17
-35 11 -13 16 -33 14 -59 l-2 -41 44 36 c26 21 55 36 71 36 22 0 26 4 26 30 0
17 9 37 21 49 l22 20 -36 -6 c-47 -7 -64 7 -63 54 1 31 7 41 35 58 18 11 54
41 80 66 47 47 61 53 164 64 52 6 62 4 105 -24 66 -41 82 -58 76 -76 -7 -18
-45 -20 -62 -3 -9 9 -12 8 -12 -5 0 -11 12 -18 35 -23 45 -8 78 17 69 53 -11
42 10 53 107 53 48 0 90 4 93 8 11 18 -265 109 -413 136 -130 25 -186 21 -254
-15z m-239 -428 c5 -33 -16 -51 -59 -51 -50 0 -51 18 -2 53 43 31 57 30 61 -2z"/>
<path d="M2686 4181 c-40 -6 -55 -15 -90 -52 -24 -24 -57 -52 -74 -61 -23 -12
-32 -24 -32 -42 0 -36 15 -40 46 -11 15 14 30 25 34 25 10 0 20 -26 20 -49 0
-20 30 -51 48 -51 7 0 12 10 12 23 0 13 5 28 12 35 9 9 7 16 -6 31 -25 28 -13
50 44 89 79 51 103 38 56 -31 -21 -31 -22 -36 -9 -50 14 -13 19 -13 50 0 31
12 38 12 59 -2 27 -18 32 -50 8 -59 -9 -3 -29 -6 -45 -6 -32 0 -49 -27 -49
-76 0 -14 -6 -26 -12 -28 -78 -21 -112 -25 -122 -17 -13 11 -87 18 -101 9 -6
-3 -23 -6 -38 -6 -19 0 -41 -11 -65 -34 -43 -39 -101 -68 -140 -68 l-27 0 21
-18 c26 -20 41 -97 22 -108 -20 -13 -117 -15 -138 -4 -17 9 -20 6 -26 -25 -3
-19 -10 -38 -15 -41 -16 -9 -10 -60 9 -77 36 -33 178 -11 157 24 -12 19 8 51
41 65 23 9 39 26 48 49 17 39 30 43 58 19 17 -16 20 -15 59 10 53 36 80 29
111 -26 13 -22 41 -52 63 -66 l40 -25 -52 56 c-29 31 -53 61 -53 67 0 21 21
50 36 50 17 0 74 -58 74 -75 0 -6 18 -16 40 -21 l39 -11 63 76 c126 151 315
274 492 320 44 12 88 21 98 21 41 0 22 16 -129 107 l-72 44 -122 4 c-66 2
-127 1 -135 -2 -8 -3 -14 -19 -14 -38 0 -47 -41 -79 -90 -70 -19 4 -43 11 -52
16 -21 11 -24 59 -6 77 9 9 8 15 -8 27 -20 15 -57 17 -138 6z"/>
<path d="M2703 4086 c-31 -20 -44 -46 -24 -46 15 0 24 -41 12 -53 -6 -6 -11
-21 -11 -33 0 -12 -11 -29 -26 -39 -25 -16 -27 -16 -56 12 l-29 28 3 -30 c3
-26 9 -31 45 -41 24 -6 60 -8 80 -5 35 6 39 9 47 51 5 25 13 48 18 51 5 3 -9
18 -32 33 -22 14 -40 30 -40 35 0 5 12 19 27 30 36 29 26 34 -14 7z"/>
<path d="M1320 4002 c-110 -82 -305 -283 -382 -392 -97 -137 -253 -448 -234
-467 10 -11 54 32 96 93 25 36 63 88 85 116 22 28 45 58 50 68 20 34 37 49 58
52 18 2 23 12 28 53 4 28 10 65 14 83 7 29 5 34 -14 39 -31 8 -26 23 22 75 30
33 54 49 87 57 25 7 71 22 103 34 52 19 63 29 96 82 66 104 93 166 74 165 -5
-1 -42 -26 -83 -58z"/>
<path d="M2800 4010 c-11 -7 -7 -10 18 -10 20 0 31 4 27 10 -8 13 -26 13 -45
0z"/>
<path d="M2271 3957 c8 -7 23 -24 33 -39 16 -25 16 -30 3 -58 -15 -30 -15 -30
13 -30 35 0 48 35 23 62 -9 11 -17 28 -18 39 -2 24 -21 39 -50 39 -18 -1 -18
-2 -4 -13z"/>
<path d="M3319 3846 c-95 -28 -165 -63 -249 -124 -69 -51 -161 -152 -138 -152
7 0 23 -3 36 -6 18 -5 22 -2 22 18 0 46 40 89 109 119 70 29 91 28 91 -3 0
-19 0 -19 26 1 14 11 32 17 40 14 19 -7 29 -52 15 -66 -15 -15 -14 -27 3 -27
7 0 20 -7 27 -16 11 -14 10 -19 -11 -36 -19 -16 -33 -18 -65 -13 -22 4 -71 7
-110 8 -66 2 -70 1 -73 -21 -2 -14 -14 -27 -29 -33 -30 -11 -25 -20 31 -49 27
-13 44 -16 56 -10 13 7 22 4 35 -10 9 -10 29 -22 44 -25 14 -3 39 -16 55 -29
24 -18 28 -28 22 -49 -8 -34 -54 -77 -82 -77 -12 0 -24 -7 -28 -15 -7 -19 -54
-19 -120 -1 -144 41 -151 40 -151 -4 0 -18 -6 -26 -23 -28 -26 -4 -127 34
-157 59 -11 9 -32 19 -47 23 -44 10 -100 47 -94 62 9 22 -104 18 -177 -7 -81
-27 -143 -67 -205 -133 -58 -62 -98 -136 -138 -258 l-28 -88 -111 0 -110 0
-22 -40 c-35 -61 -31 -113 13 -158 20 -20 46 -59 59 -87 18 -38 38 -59 80 -87
55 -36 56 -37 110 -25 42 8 66 8 100 -1 41 -11 50 -10 86 9 35 18 47 19 92 10
29 -6 66 -12 82 -14 24 -2 34 -10 50 -44 14 -31 26 -42 42 -43 24 0 43 -26 43
-58 0 -11 7 -25 15 -32 10 -8 15 -30 15 -61 0 -41 4 -50 29 -68 19 -14 32 -36
41 -68 7 -26 19 -55 25 -63 14 -16 26 -83 27 -144 0 -24 -8 -49 -21 -67 -12
-15 -21 -33 -21 -39 0 -7 123 -10 378 -10 308 0 382 3 397 14 16 11 19 26 19
82 -1 38 -4 83 -9 100 -5 23 -2 39 10 57 12 19 15 37 10 69 -6 38 -3 48 24 82
17 21 31 43 31 47 0 5 34 42 75 84 125 126 123 123 151 292 l5 33 -46 -20
c-76 -33 -135 -20 -135 28 0 9 -16 29 -35 45 -21 16 -39 43 -46 67 -7 22 -20
42 -30 45 -29 9 -69 64 -69 94 0 17 -11 38 -31 57 -16 16 -38 47 -48 69 -10
22 -28 49 -40 59 -11 11 -21 26 -21 35 0 8 -12 28 -27 43 -22 23 -25 32 -17
46 20 31 39 23 109 -46 130 -129 145 -147 145 -176 0 -19 10 -37 31 -54 43
-38 73 -87 93 -155 17 -59 29 -67 62 -42 10 8 28 15 38 15 23 0 142 119 157
157 7 15 13 38 15 50 1 13 6 32 9 44 8 24 -19 59 -45 59 -9 0 -21 5 -28 12 -9
9 -12 9 -12 -1 0 -8 -12 -11 -37 -9 -32 3 -38 8 -48 38 -6 19 -21 40 -33 46
-60 30 -79 74 -42 94 17 9 24 6 44 -15 13 -14 32 -25 43 -25 10 0 24 -5 31
-12 32 -32 161 -50 202 -28 29 15 66 -7 95 -57 26 -43 38 -52 50 -33 11 17 35
-9 35 -37 0 -33 16 -61 57 -100 l35 -32 -7 36 c-3 19 -18 74 -31 122 -79 272
-215 513 -413 731 l-72 80 -132 -1 c-107 0 -147 -4 -208 -23z m144 -206 c14
-11 32 -20 41 -20 18 0 50 -55 41 -70 -3 -6 5 -20 19 -32 33 -30 26 -75 -12
-85 -34 -8 -53 6 -69 52 -7 21 -36 62 -63 91 -28 29 -50 57 -50 62 0 29 57 30
93 2z"/>
<path d="M3410 3634 c0 -4 20 -31 45 -60 25 -29 50 -67 56 -83 11 -33 33 -41
42 -17 4 9 -5 21 -19 31 -16 10 -25 25 -24 38 4 39 0 47 -20 47 -10 0 -23 6
-27 14 -9 15 -53 40 -53 30z"/>
<path d="M3771 3832 c13 -16 48 -58 78 -93 186 -220 341 -553 390 -841 37
-219 44 -284 38 -378 -14 -235 -62 -457 -142 -656 l-32 -81 111 -6 c196 -11
313 16 421 96 137 101 205 253 205 456 0 154 -43 278 -128 372 -64 72 -142
120 -265 164 l-104 37 0 166 c0 139 -3 180 -21 243 -65 237 -231 425 -452 511
-36 14 -78 29 -94 32 l-28 7 23 -29z"/>
<path d="M3105 3675 c-52 -25 -85 -57 -85 -81 0 -11 4 -12 19 -4 28 15 112 12
160 -5 41 -14 71 -12 71 6 0 5 -7 9 -15 9 -8 0 -20 10 -26 22 -9 17 -9 24 5
33 9 7 16 18 16 25 0 9 -9 5 -24 -9 -30 -28 -61 -24 -60 7 1 26 2 26 -61 -3z"/>
<path d="M2640 3657 c0 -21 82 -95 114 -103 22 -5 28 -4 24 7 -2 8 -17 15 -32
17 -19 2 -37 17 -59 48 -31 44 -47 55 -47 31z"/>
<path d="M2510 3620 c-26 -20 -80 -27 -80 -10 0 6 -4 10 -10 10 -5 0 -10 -8
-10 -18 0 -23 -25 -47 -63 -61 -21 -8 -27 -17 -27 -39 0 -15 -5 -33 -11 -39
-7 -7 26 2 72 18 46 16 92 29 103 29 26 0 67 45 53 59 -14 14 -1 41 22 41 24
0 30 -15 24 -56 -5 -31 -4 -32 42 -38 26 -4 49 -5 51 -3 3 2 -11 14 -30 25
-19 11 -44 39 -56 61 -23 46 -42 51 -80 21z m-120 -100 c0 -5 -4 -10 -10 -10
-5 0 -10 5 -10 10 0 6 5 10 10 10 6 0 10 -4 10 -10z"/>
<path d="M2920 3525 c-11 -13 -9 -20 11 -41 21 -23 22 -27 8 -37 -8 -7 -18
-20 -22 -29 -8 -22 -27 -23 -53 -3 -26 20 -27 20 -49 -21 l-19 -35 -97 7 c-61
4 -99 3 -103 -4 -8 -13 37 -42 67 -42 14 0 31 -7 38 -17 15 -18 111 -63 134
-63 8 0 12 6 9 14 -7 18 45 59 65 50 17 -7 112 -30 168 -40 22 -5 37 -2 48 10
9 9 27 16 39 16 25 0 66 34 66 54 0 25 -68 57 -133 62 -16 1 -36 9 -46 18 -10
9 -25 16 -34 16 -8 0 -25 12 -36 26 -16 20 -18 31 -10 45 6 12 6 19 0 19 -5 0
-16 2 -24 5 -7 3 -20 -1 -27 -10z m63 -136 c42 -11 50 -29 13 -29 -35 0 -78
18 -71 30 8 12 11 12 58 -1z"/>
<path d="M2867 3486 c-4 -10 -1 -13 9 -9 7 3 14 9 14 14 0 14 -17 10 -23 -5z"/>
<path d="M2875 3440 c3 -5 8 -10 11 -10 2 0 4 5 4 10 0 6 -5 10 -11 10 -5 0
-7 -4 -4 -10z"/>
<path d="M2218 3433 c-27 -2 -48 -8 -48 -14 0 -14 64 -11 86 6 10 8 17 14 14
13 -3 -1 -26 -3 -52 -5z"/>
<path d="M2150 3380 c0 -5 -24 -28 -52 -51 -33 -25 -55 -51 -58 -67 -5 -27
-72 -81 -100 -82 -20 0 -86 -62 -94 -87 -4 -12 -13 -24 -21 -27 -7 -2 -19 -14
-25 -25 -10 -20 -8 -21 57 -21 l68 0 44 91 c34 71 61 109 127 178 46 49 81 91
77 95 -10 9 -23 7 -23 -4z"/>
<path d="M3600 3208 c0 -9 17 -25 38 -35 25 -14 41 -30 48 -53 15 -45 27 -47
54 -10 17 24 18 30 6 30 -21 0 -96 38 -123 63 -19 17 -23 18 -23 5z"/>
<path d="M3223 3172 c15 -19 27 -38 27 -44 0 -6 14 -26 30 -45 17 -18 30 -42
30 -51 0 -10 16 -33 35 -52 25 -24 35 -43 35 -64 0 -23 11 -40 50 -76 28 -25
50 -51 50 -58 0 -25 23 -59 56 -81 22 -15 34 -32 34 -46 0 -26 32 -39 59 -25
47 26 116 49 123 42 4 -4 4 -23 -1 -42 -5 -19 -14 -68 -21 -108 -11 -65 -18
-80 -66 -140 -29 -38 -67 -78 -83 -89 -16 -12 -50 -52 -76 -89 -40 -58 -46
-73 -41 -102 3 -20 -1 -50 -11 -74 -13 -33 -14 -45 -3 -78 9 -28 10 -55 3
-104 l-9 -66 49 0 c59 0 98 21 134 72 39 57 57 51 50 -17 l-6 -55 184 0 184 0
21 48 c39 86 99 276 120 382 26 129 37 310 29 468 -6 105 -10 122 -33 156 -14
22 -26 45 -26 52 0 8 -11 21 -26 30 -30 21 -54 64 -54 100 0 22 -2 24 -15 14
-19 -16 -28 -9 -66 50 -37 57 -48 63 -90 48 -17 -6 -50 -8 -75 -4 -39 5 -44 3
-44 -14 0 -12 7 -20 16 -20 8 0 28 -13 43 -28 28 -27 28 -29 17 -87 -7 -33
-17 -72 -23 -86 -18 -42 -135 -157 -168 -165 -16 -3 -38 -13 -47 -21 -30 -27
-61 -12 -80 37 -9 25 -20 58 -23 73 -3 16 -29 52 -57 80 -33 33 -51 60 -52 76
-1 15 -16 42 -33 61 -69 75 -119 126 -148 150 l-29 25 27 -33z"/>
<path d="M1638 2851 c-93 -30 -192 -103 -249 -184 -65 -92 -90 -173 -96 -308
-14 -277 113 -483 341 -558 74 -25 126 -27 601 -23 l361 2 12 28 c7 15 19 38
27 52 18 31 11 107 -15 165 -10 22 -21 52 -24 67 -4 15 -20 40 -37 56 -25 24
-33 40 -37 81 -2 28 -11 56 -18 62 -8 6 -14 24 -14 40 0 24 -4 29 -24 29 -19
0 -29 11 -47 48 l-24 47 -75 7 c-65 6 -80 4 -112 -14 -31 -18 -41 -19 -69 -9
-41 14 -94 14 -134 0 -28 -11 -36 -8 -102 35 -44 28 -75 56 -82 73 -20 50 -52
98 -83 124 -26 22 -30 31 -25 55 3 17 2 36 -3 44 -5 9 0 26 16 49 13 20 24 39
24 43 0 13 -52 8 -112 -11z"/>
<path d="M616 2789 c-3 -16 -9 -85 -12 -152 -19 -360 89 -752 290 -1062 66
-100 159 -212 164 -197 2 6 -4 36 -12 66 -18 61 -20 178 -5 246 6 25 14 88 19
140 9 106 27 200 42 215 5 6 29 10 53 10 24 0 46 3 50 6 11 12 -27 95 -58 128
-18 18 -65 58 -104 88 -40 29 -80 68 -89 86 -9 18 -38 57 -64 87 -74 87 -83
105 -77 152 5 34 1 47 -20 74 -13 18 -40 42 -60 54 -19 11 -37 30 -40 41 -5
16 -49 49 -66 49 -3 0 -7 -14 -11 -31z"/>
<path d="M1200 2032 c-14 -2 -31 -9 -37 -14 -9 -7 -17 -7 -28 2 -12 10 -15 8
-20 -12 -15 -63 -32 -181 -28 -201 2 -12 -5 -67 -16 -122 -17 -83 -19 -112
-11 -169 6 -37 12 -71 14 -75 2 -3 7 -24 10 -46 10 -66 33 -101 110 -171 204
-185 467 -330 723 -400 119 -32 174 -29 236 15 33 24 61 33 129 43 86 12 88
12 112 -11 23 -22 33 -23 128 -23 65 1 119 7 146 16 24 9 85 19 135 22 91 6
92 6 119 -21 l28 -28 77 28 c334 117 642 354 866 668 l59 82 -172 3 c-100 1
-177 -2 -184 -7 -6 -5 -20 -33 -30 -61 -28 -77 -79 -102 -124 -60 -19 18 -27
44 -25 85 1 6 4 18 8 28 6 15 -1 17 -85 17 l-92 0 5 -27 c7 -36 -17 -81 -49
-93 -13 -5 -37 -31 -54 -56 -19 -31 -56 -65 -111 -103 -115 -79 -122 -82 -197
-86 -37 -1 -79 -6 -94 -10 -31 -8 -33 -5 -43 68 -4 33 -14 55 -31 70 -30 26
-46 83 -38 135 4 27 1 49 -10 70 l-17 32 -383 0 c-405 0 -465 5 -590 49 -139
49 -300 181 -376 308 -30 49 -39 57 -60 55z"/>
<path d="M3621 1804 c-22 -23 -22 -24 -3 -24 12 0 23 9 27 21 10 30 3 31 -24
3z"/>
<path d="M2648 1603 c5 -10 12 -53 14 -96 5 -70 8 -81 36 -110 21 -23 32 -46
37 -80 6 -40 10 -47 24 -41 9 4 49 9 89 10 57 1 78 6 95 22 12 11 54 41 93 66
52 34 76 58 88 85 11 22 31 45 52 56 43 23 57 46 48 80 l-6 25 -289 0 c-273 0
-289 -1 -281 -17z"/>
<path d="M3459 1599 c-16 -16 -20 -28 -15 -52 7 -35 22 -48 51 -45 19 3 44 43
60 96 6 20 3 22 -34 22 -28 0 -48 -7 -62 -21z"/>
<path d="M2305 858 c-27 -4 -64 -10 -81 -13 -18 -3 -48 -18 -68 -34 -31 -25
-34 -30 -19 -36 10 -4 106 -10 213 -13 208 -5 307 4 468 40 94 22 118 41 66
54 -33 8 -155 -3 -219 -21 -49 -13 -128 -20 -212 -17 -27 1 -51 10 -70 25 -25
21 -34 22 -78 15z"/>
</g>
</svg>
